HIERARCHY
ROOT Hips
{
	OFFSET 0.000000 0.000000 0.000000
	CHANNELS 6 Xposition Yposition Zposition Zrotation Yrotation Xrotation 
	JOINT LowerBack
	{
		OFFSET 0.000000 0.000000 0.000000
		CHANNELS 3 Zrotation Yrotation Xrotation
		JOINT Spine
		{
			OFFSET 0.028270 2.035590 -0.193380
			CHANNELS 3 Zrotation Yrotation Xrotation
			JOINT Spine1
			{
				OFFSET 0.056720 2.048850 -0.042750
				CHANNELS 3 Zrotation Yrotation Xrotation
				JOINT Neck
				{
					OFFSET 0.000000 0.000000 0.000000
					CHANNELS 3 Zrotation Yrotation Xrotation
					JOINT Neck1
					{
						OFFSET -0.054170 1.746240 0.172020
						CHANNELS 3 Zrotation Yrotation Xrotation
						JOINT Head
						{
							OFFSET 0.104070 1.761360 -0.123970
							CHANNELS 3 Zrotation Yrotation Xrotation
							End Site
							{
								OFFSET 0.000000 0.000000 0.000000
							}
						}
					}
				}
				JOINT LeftShoulder
				{
					OFFSET 0.000000 0.000000 0.000000
					CHANNELS 3 Zrotation Yrotation Xrotation
					JOINT LeftArm
					{
						OFFSET 3.362410 1.200890 -0.311210
						CHANNELS 3 Zrotation Yrotation Xrotation
						JOINT LeftForeArm
						{
							OFFSET 4.983000 -0.000000 -0.000000
							CHANNELS 3 Zrotation Yrotation Xrotation
							JOINT LeftHand
							{
								OFFSET 3.483560 -0.000000 -0.000000
								CHANNELS 3 Zrotation Yrotation Xrotation
								JOINT LeftFingerBase
								{
									OFFSET 0.000000 0.000000 0.000000
									CHANNELS 3 Zrotation Yrotation Xrotation
									JOINT LeftHandIndex1
									{
										OFFSET 0.715260 -0.000000 -0.000000
										CHANNELS 3 Zrotation Yrotation Xrotation
										End Site
										{
											OFFSET 0.000000 0.000000 0.000000
										}
									}
								}
								JOINT LThumb
								{
									OFFSET 0.000000 0.000000 0.000000
									CHANNELS 3 Zrotation Yrotation Xrotation
									End Site
									{
										OFFSET 0.000000 0.000000 0.000000
									}
								}
							}
						}
					}
				}
				JOINT RightShoulder
				{
					OFFSET 0.000000 0.000000 0.000000
					CHANNELS 3 Zrotation Yrotation Xrotation
					JOINT RightArm
					{
						OFFSET -3.136600 1.374050 -0.404650
						CHANNELS 3 Zrotation Yrotation Xrotation
						JOINT RightForeArm
						{
							OFFSET -5.241900 -0.000000 -0.000000
							CHANNELS 3 Zrotation Yrotation Xrotation
							JOINT RightHand
							{
								OFFSET -3.444170 -0.000000 -0.000000
								CHANNELS 3 Zrotation Yrotation Xrotation
								JOINT RightFingerBase
								{
									OFFSET 0.000000 0.000000 0.000000
									CHANNELS 3 Zrotation Yrotation Xrotation
									JOINT RightHandIndex1
									{
										OFFSET -0.622530 -0.000000 -0.000000
										CHANNELS 3 Zrotation Yrotation Xrotation
										End Site
										{
											OFFSET 0.000000 0.000000 0.000000
										}
									}
								}
								JOINT RThumb
								{
									OFFSET 0.000000 0.000000 0.000000
									CHANNELS 3 Zrotation Yrotation Xrotation
									End Site
									{
										OFFSET 0.000000 0.000000 0.000000
									}
								}
							}
						}
					}
				}
			}
		}
	}
}
}
MOTION
Frames: 17
Frame Time: 0.008333
3.423473 17.222219 1.129282 -176.307176 -70.759752 -172.325951 1.911645 -3.766502 -5.075897 -0.160886 -4.116677 -3.382038 -7.725986 -3.888061 -0.043435 12.311328 -7.193738 -2.737715 -1.748394 -0.196451 1.381260 0.000000 0.000000 0.000000 19.274884 4.264330 3.720258 40.193047 -66.219078 -84.368656 0.715357 3.966692 -0.029534 4.416521 -1.622063 -0.082970 -0.175924 0.438890 -0.000000 0.000000 0.000000 0.000000 0.000000 0.000000 0.000000 2.480748 -4.782433 -5.930030 91.182248 23.880164 36.658332 -178.364947 57.140976 179.891686 -5.594759 14.158923 -0.739219 -0.057816 -0.989514 -0.000000 0.000000 0.000000 0.000000 0.000000 0.000000 0.000000 
3.421572 17.221967 1.124072 -176.580620 -70.692197 -172.092310 1.926283 -3.686069 -5.049735 -0.164081 -4.037462 -3.417293 -7.699780 -3.814803 -0.206634 12.118633 -7.258956 -2.570240 -1.791573 -0.201704 1.430488 0.000000 0.000000 0.000000 19.472480 4.289797 3.081309 35.912938 -67.068584 -83.530544 1.075315 0.735284 -0.031201 4.248055 -2.699463 -0.122788 -0.134837 0.497225 -0.000000 0.000000 0.000000 0.000000 0.000000 0.000000 0.000000 2.234177 -4.589636 -5.793423 91.135275 23.478130 36.257427 -178.334604 57.117383 179.889951 -5.718867 14.083010 -0.752317 -0.055578 -0.994248 -0.000000 0.000000 0.000000 0.000000 0.000000 0.000000 0.000000 
3.420297 17.221658 1.118500 -176.842848 -70.655404 -171.888117 1.934316 -3.609328 -5.005033 -0.166154 -3.960569 -3.479446 -7.655393 -3.752049 -0.492357 11.895608 -7.295374 -2.279877 -1.858999 -0.210280 1.515382 0.000000 0.000000 0.000000 19.617880 4.093312 2.198409 29.446700 -67.866143 -78.464581 1.331180 -3.296767 -0.030729 3.711063 -3.442252 -0.132798 -0.088228 0.545553 -0.000000 0.000000 0.000000 0.000000 0.000000 0.000000 0.000000 1.991260 -4.337847 -5.600300 91.020433 23.030110 35.820982 -178.319014 57.122075 179.888142 -5.862548 13.992914 -0.767506 -0.051711 -1.000383 -0.000000 0.000000 0.000000 0.000000 0.000000 0.000000 0.000000 
3.419497 17.221219 1.112688 -177.088819 -70.657523 -171.706657 1.946170 -3.529879 -4.933575 -0.164787 -3.879733 -3.565475 -7.590599 -3.694354 -0.885842 11.651364 -7.311545 -1.906725 -1.938713 -0.220797 1.624422 0.000000 0.000000 0.000000 19.614524 3.766504 1.149681 21.431035 -68.338016 -70.059458 1.603841 -7.966723 -0.030271 3.178489 -3.766559 -0.122892 -0.043532 0.584936 -0.000000 0.000000 0.000000 0.000000 0.000000 0.000000 0.000000 1.745946 -4.094197 -5.369695 90.863751 22.551276 35.394812 -178.314691 57.154774 179.886348 -6.012353 13.899176 -0.783105 -0.047063 -1.006575 -0.000000 0.000000 0.000000 0.000000 0.000000 0.000000 0.000000 
3.418751 17.220645 1.106804 -177.309036 -70.711240 -171.546069 1.959032 -3.434450 -4.840355 -0.166026 -3.781597 -3.659329 -7.529354 -3.623370 -1.313732 11.427210 -7.322899 -1.521499 -2.015506 -0.231247 1.736734 0.000000 0.000000 0.000000 19.410300 3.454927 0.113843 13.465835 -68.425646 -61.058831 1.950897 -12.897513 -0.030544 2.750971 -3.858483 -0.107936 0.001178 0.622417 -0.000000 0.000000 0.000000 0.000000 0.000000 0.000000 0.000000 1.532219 -3.931835 -5.134554 90.670099 22.075054 34.995932 -178.313874 57.191225 179.884636 -6.160441 13.810227 -0.798526 -0.042391 -1.011480 -0.000000 0.000000 0.000000 0.000000 0.000000 0.000000 0.000000 
3.418056 17.219954 1.100871 -177.518191 -70.818613 -171.398628 1.970953 -3.317911 -4.736667 -0.176326 -3.661688 -3.747054 -7.496027 -3.529078 -1.711471 11.242019 -7.338616 -1.161186 -2.083260 -0.240732 1.841171 0.000000 0.000000 0.000000 19.015654 3.219433 -0.790770 6.421957 -68.202873 -52.927098 2.305895 -17.958807 -0.031537 2.468643 -3.751308 -0.093616 0.043150 0.658322 -0.000000 0.000000 0.000000 0.000000 0.000000 0.000000 0.000000 1.375029 -3.870346 -4.913652 90.447295 21.632594 34.630968 -178.312469 57.229574 179.883087 -6.295811 13.728962 -0.812363 -0.038386 -1.014696 -0.000000 0.000000 0.000000 0.000000 0.000000 0.000000 0.000000 
3.417139 17.219177 1.094951 -177.715660 -70.971766 -171.264814 1.985506 -3.183383 -4.639772 -0.197497 -3.524672 -3.819366 -7.502114 -3.412333 -2.033033 11.100451 -7.369589 -0.846833 -2.141648 -0.248960 1.931494 0.000000 0.000000 0.000000 18.459620 3.102988 -1.519436 0.579490 -67.825386 -46.281024 2.589545 -23.072314 -0.032194 2.245235 -3.535854 -0.079930 0.082397 0.692032 -0.000000 0.000000 0.000000 0.000000 0.000000 0.000000 0.000000 1.286259 -3.904486 -4.715958 90.199053 21.255356 34.310501 -178.312076 57.270472 179.881809 -6.411561 13.655746 -0.823709 -0.035128 -1.016454 -0.000000 0.000000 0.000000 0.000000 0.000000 0.000000 0.000000 
3.415684 17.218352 1.089070 -177.901248 -71.156182 -171.141822 2.004878 -3.038516 -4.559781 -0.227577 -3.379030 -3.873220 -7.543838 -3.280638 -2.263044 10.996457 -7.422398 -0.585352 -2.192903 -0.255998 2.005836 0.000000 0.000000 0.000000 17.790180 3.114965 -2.083738 -4.283223 -67.380425 -40.969097 2.763654 -28.233625 -0.032271 2.091045 -3.165166 -0.066809 0.116396 0.719998 -0.000000 0.000000 0.000000 0.000000 0.000000 0.000000 0.000000 1.264159 -4.017868 -4.543260 89.931587 20.965304 34.047511 -178.318170 57.323030 179.880928 -6.499228 13.596881 -0.831957 -0.032545 -1.017354 -0.000000 0.000000 0.000000 0.000000 0.000000 0.000000 0.000000 
3.413499 17.217502 1.083256 -178.074523 -71.355786 -171.026950 2.029058 -2.889134 -4.500530 -0.263755 -3.230663 -3.908835 -7.612257 -3.140247 -2.402745 10.923171 -7.500161 -0.378949 -2.238749 -0.261947 2.063768 0.000000 0.000000 0.000000 17.056697 3.254930 -2.511922 -8.487616 -66.907819 -36.668347 2.819940 -33.458563 -0.031384 1.963651 -2.685590 -0.053972 0.145837 0.742372 -0.000000 0.000000 0.000000 0.000000 0.000000 0.000000 0.000000 1.297548 -4.194571 -4.393901 89.650222 20.767029 33.847604 -178.333814 57.385547 179.880523 -6.553441 13.550704 -0.836406 -0.030559 -1.017758 -0.000000 0.000000 0.000000 0.000000 0.000000 0.000000 0.000000 
3.410468 17.216665 1.077497 -178.236349 -71.555302 -170.917198 2.056346 -2.739026 -4.462595 -0.303348 -3.083048 -3.927339 -7.697634 -2.995264 -2.458726 10.874701 -7.603707 -0.228413 -2.280559 -0.266889 2.105235 0.000000 0.000000 0.000000 16.300499 3.514409 -2.827499 -12.286950 -66.419580 -33.098173 2.765310 -38.736314 -0.029618 1.862576 -2.112362 -0.041736 0.170564 0.759312 -0.000000 0.000000 0.000000 0.000000 0.000000 0.000000 0.000000 1.375452 -4.420899 -4.266138 89.359586 20.659343 33.710592 -178.361172 57.455322 179.880646 -6.570344 13.517385 -0.836855 -0.029110 -1.017998 -0.000000 0.000000 0.000000 0.000000 0.000000 0.000000 0.000000 
3.406263 17.215851 1.071792 -178.375680 -71.742250 -170.815407 2.090984 -2.589432 -4.451432 -0.343253 -2.937935 -3.931376 -7.792583 -2.848066 -2.439137 10.842892 -7.728980 -0.131772 -2.319266 -0.270908 2.130936 0.000000 0.000000 0.000000 15.542971 3.875580 -3.045379 -15.824993 -65.903991 -30.043109 2.610555 -44.046054 -0.027547 1.820696 -1.457468 -0.030813 0.189585 0.771326 -0.000000 0.000000 0.000000 0.000000 0.000000 0.000000 0.000000 1.483268 -4.681672 -4.158497 89.066275 20.631924 33.630379 -178.399572 57.529718 179.881247 -6.551766 13.499606 -0.833503 -0.028131 -1.018392 -0.000000 0.000000 0.000000 0.000000 0.000000 0.000000 0.000000 
3.400887 17.215080 1.066135 -178.492292 -71.906432 -170.722577 2.131860 -2.440350 -4.464898 -0.382100 -2.794972 -3.922900 -7.891926 -2.698816 -2.354508 10.822089 -7.870264 -0.083997 -2.355618 -0.274110 2.142343 0.000000 0.000000 0.000000 14.807693 4.316250 -3.178797 -19.208704 -65.349868 -27.346085 2.370714 -49.357059 -0.025419 1.823401 -0.784219 -0.021008 0.203516 0.780001 -0.000000 0.000000 0.000000 0.000000 0.000000 0.000000 0.000000 1.607688 -4.961160 -4.068876 88.775646 20.669203 33.592886 -178.446631 57.599999 179.882258 -6.501952 13.493706 -0.826849 -0.027576 -1.019102 -0.000000 0.000000 0.000000 0.000000 0.000000 0.000000 0.000000 
3.394444 17.214352 1.060555 -178.580861 -72.040485 -170.645441 2.181753 -2.291141 -4.501725 -0.418341 -2.653614 -3.904567 -7.992140 -2.547485 -2.216928 10.804612 -8.017023 -0.076603 -2.390202 -0.276635 2.141886 0.000000 0.000000 0.000000 14.110935 4.806480 -3.237632 -22.490745 -64.732303 -24.893125 2.063277 -54.637207 -0.023563 1.864466 -0.143382 -0.012120 0.212542 0.786468 -0.000000 0.000000 0.000000 0.000000 0.000000 0.000000 0.000000 1.733490 -5.239780 -3.995409 88.494024 20.749937 33.579930 -178.498273 57.660803 179.883531 -6.429337 13.497648 -0.817791 -0.027394 -1.020265 -0.000000 0.000000 0.000000 0.000000 0.000000 0.000000 0.000000 
3.386759 17.213701 1.054910 -178.646145 -72.141337 -170.576771 2.238677 -2.141660 -4.560826 -0.451579 -2.513524 -3.877441 -8.091190 -2.394003 -2.031779 10.785891 -8.170305 -0.107050 -2.424258 -0.278577 2.130302 0.000000 0.000000 0.000000 13.438126 5.349074 -3.236186 -25.647277 -64.081674 -22.616870 1.711815 -59.813968 -0.022304 1.927785 0.382063 -0.004647 0.217065 0.792439 -0.000000 0.000000 0.000000 0.000000 0.000000 0.000000 0.000000 1.853490 -5.512027 -3.936887 88.226888 20.863457 33.582481 -178.553623 57.705875 179.884998 -6.343159 13.505323 -0.807227 -0.027228 -1.021895 -0.000000 0.000000 0.000000 0.000000 0.000000 0.000000 0.000000 
3.378196 17.213052 1.049401 -178.675907 -72.207658 -170.534202 2.309449 -1.991921 -4.636387 -0.480272 -2.374967 -3.845005 -8.187725 -2.239345 -1.816515 10.755625 -8.308429 -0.159413 -2.457739 -0.280142 2.112102 0.000000 0.000000 0.000000 12.815891 5.897652 -3.182228 -28.721952 -63.335392 -20.445058 1.338175 -64.884181 -0.021545 1.990850 0.777666 0.001316 0.217469 0.798065 -0.000000 0.000000 0.000000 0.000000 0.000000 0.000000 0.000000 1.947549 -5.749456 -3.891803 87.982858 20.978688 33.575801 -178.605225 57.733363 179.886416 -6.256196 13.515785 -0.796757 -0.027188 -1.024037 -0.000000 0.000000 0.000000 0.000000 0.000000 0.000000 0.000000 
3.368681 17.212489 1.043808 -178.683754 -72.243165 -170.501456 2.390116 -1.842969 -4.729218 -0.504791 -2.238840 -3.807869 -8.281494 -2.084664 -1.572696 10.711665 -8.439075 -0.234996 -2.491876 -0.281382 2.086996 0.000000 0.000000 0.000000 12.210079 6.477128 -3.092896 -31.652423 -62.551270 -18.347230 0.970982 -69.769585 -0.021412 2.040039 0.988011 0.004672 0.214028 0.804623 -0.000000 0.000000 0.000000 0.000000 0.000000 0.000000 0.000000 2.014767 -5.957468 -3.860009 87.767588 21.092130 33.559647 -178.654130 57.740494 179.887751 -6.177464 13.523026 -0.787177 -0.026784 -1.026603 -0.000000 0.000000 0.000000 0.000000 0.000000 0.000000 0.000000 
3.358621 17.211900 1.038341 -178.658278 -72.251638 -170.498056 2.486358 -1.696517 -4.827150 -0.523907 -2.106674 -3.768593 -8.371170 -1.932252 -1.318258 10.644703 -8.542025 -0.317512 -2.526687 -0.282520 2.059601 0.000000 0.000000 0.000000 11.655330 7.041946 -2.976454 -34.484280 -61.656188 -16.291526 0.631973 -74.487930 -0.021250 2.036374 1.034875 0.005523 0.207557 0.811690 -0.000000 0.000000 0.000000 0.000000 0.000000 0.000000 0.000000 2.038340 -6.112766 -3.839900 87.588321 21.179366 33.515498 -178.693999 57.729644 179.888792 -6.118443 13.526107 -0.779890 -0.026124 -1.029533 -0.000000 0.000000 0.000000 0.000000 0.000000 0.000000 0.000000 
